<svg width="1000" height="250" viewBox="0 0 1000 250" fill="none" xmlns="http://www.w3.org/2000/svg">
<rect width="1000" height="250" fill="white"/>
<path d="M194.558 34.7488C191.535 23.4026 180.899 15 168.34 15C153.335 15 141.215 26.7476 141.215 41.3317C141.215 43.7936 141.517 46.0414 142.149 48.2358H153.032C153.829 50.0554 154.709 51.0991 154.709 51.0991C157.979 55.7018 163.448 58.6721 169.632 58.6721C179.663 58.6721 187.825 50.7244 187.825 40.9571C187.825 38.7092 188.402 36.6755 187.44 34.7488H194.558Z" fill="#3563E9"/>
<path d="M193.816 192.231C190.958 195.04 187.028 197.208 182.603 197.208L182.576 139.808L223.36 128.408L233.583 147.997L193.816 192.231Z" fill="#3563E9"/>
<path d="M159.573 60.9467C156.88 58.0299 153.005 56.1834 148.635 56.1834C143.991 56.1834 139.841 58.2707 137.175 61.5622L104.801 109.703C103.482 111.844 102.74 114.359 102.74 117.009C102.74 121.986 105.323 126.321 109.225 128.863L152.648 152.332V192.257C152.648 197.904 157.347 202.506 163.146 202.506C168.917 202.506 173.644 197.904 173.644 192.257V142.404C173.644 142.404 175.018 134.456 165.757 130.121L138.686 116.313L158.419 86.9841L168.89 102.986C170.978 106.224 173.809 107.482 176.392 107.429L203.27 107.322C214.208 107.322 214.208 93.4599 203.27 93.5135H181.477L159.573 60.9467Z" fill="#3563E9"/>
<path d="M278.572 126.375C279.012 126.803 279.231 127.311 279.231 128.007C279.231 129.265 278.16 130.308 276.868 130.308C276.511 130.308 276.291 130.308 276.016 130.201C271.372 128.275 268.431 127.07 263.017 127.07C259.444 127.07 255.02 128.275 249.908 132.289L245.181 123.19C251.09 121.478 255.926 119.952 260.983 119.952C269.063 119.952 273.295 121.585 278.572 126.375Z" fill="#3563E9"/>
<path d="M98.0125 133.386L143.578 157.844L143.688 167.665L91.6366 139.754C87.8715 137.881 82.8148 136.784 79.2146 136.784C73.8556 136.784 70.8599 137.988 66.2429 139.915C65.9406 140.022 65.6932 140.022 65.3909 140.022C64.0993 140.022 63 138.978 63 137.721C63 137.052 63.2748 136.517 63.687 136.088C68.9637 131.272 74.3502 129.666 82.4026 129.666C86.5524 129.666 91.5542 130.148 98.0125 133.386Z" fill="#3563E9"/>
<path d="M102.245 223.379C117.085 223.379 129.123 211.658 129.123 197.181C129.123 182.704 117.085 170.983 102.245 170.983C87.4043 170.983 75.367 182.704 75.367 197.181C75.367 211.658 87.4043 223.379 102.245 223.379ZM63.4672 197.208C63.4672 176.362 80.836 159.423 102.245 159.423C123.681 159.423 141.05 176.362 141.05 197.208C141.05 218.054 123.681 234.993 102.245 234.993C80.836 234.993 63.4672 218.054 63.4672 197.208Z" fill="#3563E9"/>
<path d="M262.632 223.379C277.473 223.379 289.537 211.658 289.537 197.181C289.537 182.704 277.5 170.983 262.632 170.983C247.764 170.983 235.754 182.704 235.754 197.181C235.754 211.658 247.792 223.379 262.632 223.379ZM223.854 197.208C223.854 176.362 241.196 159.423 262.632 159.423C284.041 159.423 301.41 176.362 301.41 197.208C301.41 218.054 284.041 234.993 262.632 234.993C241.196 234.993 223.854 218.054 223.854 197.208Z" fill="#3563E9"/>
<path d="M254.058 154.018L235.205 117.33C232.731 112.941 227.922 109.917 222.398 109.917H210.086C207.695 109.917 205.744 111.844 205.744 114.199C205.744 116.554 207.695 118.427 210.086 118.427L222.398 118.373C224.459 118.373 226.768 119.738 227.647 121.718L245.401 156.934L254.058 154.018Z" fill="#3563E9"/>
<path d="M370.281 88.4062C370.031 85.8854 368.958 83.9271 367.063 82.5312C365.167 81.1354 362.594 80.4375 359.344 80.4375C357.135 80.4375 355.271 80.75 353.75 81.375C352.229 81.9792 351.063 82.8229 350.25 83.9062C349.458 84.9896 349.063 86.2188 349.063 87.5938C349.021 88.7396 349.26 89.7396 349.781 90.5937C350.323 91.4479 351.063 92.1875 352 92.8125C352.938 93.4167 354.021 93.9479 355.25 94.4062C356.479 94.8437 357.792 95.2187 359.188 95.5312L364.938 96.9062C367.729 97.5312 370.292 98.3646 372.625 99.4062C374.958 100.448 376.979 101.729 378.688 103.25C380.396 104.771 381.719 106.562 382.656 108.625C383.615 110.687 384.104 113.052 384.125 115.719C384.104 119.635 383.104 123.031 381.125 125.906C379.167 128.76 376.333 130.979 372.625 132.562C368.938 134.125 364.49 134.906 359.281 134.906C354.115 134.906 349.615 134.115 345.781 132.531C341.969 130.948 338.99 128.604 336.844 125.5C334.719 122.375 333.604 118.51 333.5 113.906H346.594C346.74 116.052 347.354 117.844 348.438 119.281C349.542 120.698 351.01 121.771 352.844 122.5C354.698 123.208 356.792 123.562 359.125 123.562C361.417 123.562 363.406 123.229 365.094 122.562C366.802 121.896 368.125 120.969 369.063 119.781C370 118.594 370.469 117.229 370.469 115.687C370.469 114.25 370.042 113.042 369.188 112.062C368.354 111.083 367.125 110.25 365.5 109.562C363.896 108.875 361.927 108.25 359.594 107.687L352.625 105.937C347.229 104.625 342.969 102.573 339.844 99.7812C336.719 96.9896 335.167 93.2292 335.188 88.5C335.167 84.625 336.198 81.2396 338.281 78.3438C340.385 75.4479 343.271 73.1875 346.938 71.5625C350.604 69.9375 354.771 69.125 359.438 69.125C364.188 69.125 368.333 69.9375 371.875 71.5625C375.438 73.1875 378.208 75.4479 380.188 78.3438C382.167 81.2396 383.188 84.5937 383.25 88.4062H370.281ZM414.852 134.938C409.914 134.938 405.664 133.938 402.102 131.938C398.56 129.917 395.831 127.062 393.914 123.375C391.997 119.667 391.039 115.281 391.039 110.219C391.039 105.281 391.997 100.948 393.914 97.2188C395.831 93.4896 398.529 90.5833 402.008 88.5C405.508 86.4167 409.612 85.375 414.32 85.375C417.487 85.375 420.435 85.8854 423.164 86.9062C425.914 87.9062 428.31 89.4167 430.352 91.4375C432.414 93.4583 434.018 96 435.164 99.0625C436.31 102.104 436.883 105.667 436.883 109.75V113.406H396.352V105.156H424.352C424.352 103.24 423.935 101.542 423.102 100.063C422.268 98.5833 421.112 97.4271 419.633 96.5937C418.174 95.7396 416.477 95.3125 414.539 95.3125C412.518 95.3125 410.727 95.7812 409.164 96.7187C407.622 97.6354 406.414 98.875 405.539 100.437C404.664 101.979 404.216 103.698 404.195 105.594V113.437C404.195 115.812 404.633 117.865 405.508 119.594C406.404 121.323 407.664 122.656 409.289 123.594C410.914 124.531 412.841 125 415.07 125C416.549 125 417.904 124.792 419.133 124.375C420.362 123.958 421.414 123.333 422.289 122.5C423.164 121.667 423.831 120.646 424.289 119.438L436.602 120.25C435.977 123.208 434.695 125.792 432.758 128C430.841 130.187 428.362 131.896 425.32 133.125C422.299 134.333 418.81 134.938 414.852 134.938ZM454.695 134L441.633 86H455.102L462.539 118.25H462.977L470.727 86H483.945L491.82 118.063H492.227L499.539 86H512.977L499.945 134H485.852L477.602 103.812H477.008L468.758 134H454.695ZM533.766 134.906C530.703 134.906 527.974 134.375 525.578 133.312C523.182 132.229 521.286 130.635 519.891 128.531C518.516 126.406 517.828 123.76 517.828 120.594C517.828 117.927 518.318 115.687 519.297 113.875C520.276 112.063 521.609 110.604 523.297 109.5C524.984 108.396 526.901 107.562 529.047 107C531.214 106.437 533.484 106.042 535.859 105.812C538.651 105.521 540.901 105.25 542.609 105C544.318 104.729 545.557 104.333 546.328 103.812C547.099 103.292 547.484 102.521 547.484 101.5V101.312C547.484 99.3333 546.859 97.8021 545.609 96.7187C544.38 95.6354 542.63 95.0937 540.359 95.0937C537.964 95.0937 536.057 95.625 534.641 96.6875C533.224 97.7292 532.286 99.0417 531.828 100.625L519.516 99.625C520.141 96.7083 521.37 94.1875 523.203 92.0625C525.036 89.9167 527.401 88.2708 530.297 87.125C533.214 85.9583 536.589 85.375 540.422 85.375C543.089 85.375 545.641 85.6875 548.078 86.3125C550.536 86.9375 552.714 87.9062 554.609 89.2187C556.526 90.5312 558.036 92.2187 559.141 94.2812C560.245 96.3229 560.797 98.7708 560.797 101.625V134H548.172V127.344H547.797C547.026 128.844 545.995 130.167 544.703 131.312C543.411 132.437 541.859 133.323 540.047 133.969C538.234 134.594 536.141 134.906 533.766 134.906ZM537.578 125.719C539.536 125.719 541.266 125.333 542.766 124.562C544.266 123.771 545.443 122.708 546.297 121.375C547.151 120.042 547.578 118.531 547.578 116.844V111.75C547.161 112.021 546.589 112.271 545.859 112.5C545.151 112.708 544.349 112.906 543.453 113.094C542.557 113.26 541.661 113.417 540.766 113.562C539.87 113.687 539.057 113.802 538.328 113.906C536.766 114.135 535.401 114.5 534.234 115C533.068 115.5 532.161 116.177 531.516 117.031C530.87 117.865 530.547 118.906 530.547 120.156C530.547 121.969 531.203 123.354 532.516 124.312C533.849 125.25 535.536 125.719 537.578 125.719ZM591.742 70H608.43L626.055 113H626.805L644.43 70H661.117V134H647.992V92.3437H647.461L630.898 133.687H621.961L605.398 92.1875H604.867V134H591.742V70ZM693.703 134.938C688.849 134.938 684.651 133.906 681.109 131.844C677.589 129.76 674.87 126.865 672.953 123.156C671.036 119.427 670.078 115.104 670.078 110.187C670.078 105.229 671.036 100.896 672.953 97.1875C674.87 93.4583 677.589 90.5625 681.109 88.5C684.651 86.4167 688.849 85.375 693.703 85.375C698.557 85.375 702.745 86.4167 706.266 88.5C709.807 90.5625 712.536 93.4583 714.453 97.1875C716.37 100.896 717.328 105.229 717.328 110.187C717.328 115.104 716.37 119.427 714.453 123.156C712.536 126.865 709.807 129.76 706.266 131.844C702.745 133.906 698.557 134.938 693.703 134.938ZM693.766 124.625C695.974 124.625 697.818 124 699.297 122.75C700.776 121.479 701.891 119.75 702.641 117.562C703.411 115.375 703.797 112.885 703.797 110.094C703.797 107.302 703.411 104.813 702.641 102.625C701.891 100.437 700.776 98.7083 699.297 97.4375C697.818 96.1667 695.974 95.5312 693.766 95.5312C691.536 95.5312 689.661 96.1667 688.141 97.4375C686.641 98.7083 685.505 100.437 684.734 102.625C683.984 104.813 683.609 107.302 683.609 110.094C683.609 112.885 683.984 115.375 684.734 117.562C685.505 119.75 686.641 121.479 688.141 122.75C689.661 124 691.536 124.625 693.766 124.625ZM751.516 86V96H722.609V86H751.516ZM729.172 74.5H742.484V119.25C742.484 120.479 742.672 121.437 743.047 122.125C743.422 122.792 743.943 123.26 744.609 123.531C745.297 123.802 746.089 123.937 746.984 123.937C747.609 123.937 748.234 123.885 748.859 123.781C749.484 123.656 749.964 123.562 750.297 123.5L752.391 133.406C751.724 133.615 750.786 133.854 749.578 134.125C748.37 134.417 746.901 134.594 745.172 134.656C741.964 134.781 739.151 134.354 736.734 133.375C734.339 132.396 732.474 130.875 731.141 128.812C729.807 126.75 729.151 124.146 729.172 121V74.5ZM781.359 134.938C776.505 134.938 772.307 133.906 768.766 131.844C765.245 129.76 762.526 126.865 760.609 123.156C758.693 119.427 757.734 115.104 757.734 110.187C757.734 105.229 758.693 100.896 760.609 97.1875C762.526 93.4583 765.245 90.5625 768.766 88.5C772.307 86.4167 776.505 85.375 781.359 85.375C786.214 85.375 790.401 86.4167 793.922 88.5C797.464 90.5625 800.193 93.4583 802.109 97.1875C804.026 100.896 804.984 105.229 804.984 110.187C804.984 115.104 804.026 119.427 802.109 123.156C800.193 126.865 797.464 129.76 793.922 131.844C790.401 133.906 786.214 134.938 781.359 134.938ZM781.422 124.625C783.63 124.625 785.474 124 786.953 122.75C788.432 121.479 789.547 119.75 790.297 117.562C791.068 115.375 791.453 112.885 791.453 110.094C791.453 107.302 791.068 104.813 790.297 102.625C789.547 100.437 788.432 98.7083 786.953 97.4375C785.474 96.1667 783.63 95.5312 781.422 95.5312C779.193 95.5312 777.318 96.1667 775.797 97.4375C774.297 98.7083 773.161 100.437 772.391 102.625C771.641 104.813 771.266 107.302 771.266 110.094C771.266 112.885 771.641 115.375 772.391 117.562C773.161 119.75 774.297 121.479 775.797 122.75C777.318 124 779.193 124.625 781.422 124.625ZM813.641 134V86H826.547V94.375H827.047C827.922 91.3958 829.391 89.1458 831.453 87.625C833.516 86.0833 835.891 85.3125 838.578 85.3125C839.245 85.3125 839.964 85.3542 840.734 85.4375C841.505 85.5208 842.182 85.6354 842.766 85.7812V97.5937C842.141 97.4062 841.276 97.2396 840.172 97.0937C839.068 96.9479 838.057 96.875 837.141 96.875C835.182 96.875 833.432 97.3021 831.891 98.1562C830.37 98.9896 829.161 100.156 828.266 101.656C827.391 103.156 826.953 104.885 826.953 106.844V134H813.641ZM883.797 70V134H870.266V70H883.797ZM917.617 134H894.93V70H917.805C924.242 70 929.784 71.2812 934.43 73.8438C939.076 76.3854 942.648 80.0417 945.148 84.8125C947.669 89.5833 948.93 95.2917 948.93 101.937C948.93 108.604 947.669 114.333 945.148 119.125C942.648 123.917 939.055 127.594 934.367 130.156C929.701 132.719 924.117 134 917.617 134ZM908.461 122.406H917.055C921.055 122.406 924.419 121.698 927.148 120.281C929.898 118.844 931.961 116.625 933.336 113.625C934.732 110.604 935.43 106.708 935.43 101.937C935.43 97.2083 934.732 93.3437 933.336 90.3438C931.961 87.3437 929.909 85.1354 927.18 83.7187C924.451 82.3021 921.086 81.5938 917.086 81.5938H908.461V122.406Z" fill="#3563E9"/>
<path d="M471.778 170.913C471.665 169.905 471.196 169.124 470.372 168.57C469.548 168.009 468.511 167.728 467.261 167.728C466.366 167.728 465.592 167.87 464.939 168.154C464.285 168.431 463.778 168.815 463.415 169.305C463.06 169.788 462.883 170.338 462.883 170.956C462.883 171.474 463.003 171.922 463.245 172.298C463.494 172.675 463.817 172.991 464.214 173.246C464.619 173.495 465.052 173.705 465.514 173.875C465.976 174.038 466.42 174.173 466.846 174.28L468.976 174.834C469.672 175.004 470.386 175.235 471.118 175.526C471.849 175.817 472.528 176.201 473.153 176.677C473.778 177.153 474.282 177.742 474.665 178.445C475.056 179.148 475.251 179.99 475.251 180.97C475.251 182.206 474.932 183.303 474.293 184.262C473.66 185.221 472.741 185.977 471.533 186.531C470.333 187.085 468.881 187.362 467.176 187.362C465.543 187.362 464.129 187.103 462.936 186.585C461.743 186.066 460.809 185.331 460.134 184.379C459.459 183.42 459.087 182.284 459.016 180.97H462.318C462.382 181.759 462.638 182.415 463.085 182.941C463.54 183.46 464.119 183.847 464.822 184.102C465.532 184.351 466.31 184.475 467.155 184.475C468.085 184.475 468.913 184.33 469.637 184.038C470.369 183.74 470.944 183.328 471.363 182.803C471.782 182.27 471.991 181.648 471.991 180.938C471.991 180.292 471.807 179.763 471.437 179.351C471.075 178.939 470.582 178.598 469.957 178.328C469.339 178.058 468.639 177.82 467.858 177.614L465.28 176.911C463.533 176.435 462.148 175.736 461.125 174.812C460.109 173.889 459.601 172.668 459.601 171.148C459.601 169.891 459.942 168.793 460.624 167.856C461.306 166.918 462.229 166.19 463.394 165.672C464.559 165.146 465.873 164.884 467.336 164.884C468.813 164.884 470.116 165.143 471.246 165.661C472.382 166.18 473.277 166.893 473.93 167.803C474.584 168.705 474.925 169.741 474.953 170.913H471.778ZM485.822 187.33C484.288 187.33 482.949 186.979 481.806 186.276C480.662 185.572 479.775 184.589 479.142 183.325C478.51 182.06 478.194 180.583 478.194 178.893C478.194 177.195 478.51 175.711 479.142 174.44C479.775 173.168 480.662 172.181 481.806 171.478C482.949 170.775 484.288 170.423 485.822 170.423C487.356 170.423 488.695 170.775 489.839 171.478C490.982 172.181 491.87 173.168 492.502 174.44C493.134 175.711 493.45 177.195 493.45 178.893C493.45 180.583 493.134 182.06 492.502 183.325C491.87 184.589 490.982 185.572 489.839 186.276C488.695 186.979 487.356 187.33 485.822 187.33ZM485.833 184.656C486.827 184.656 487.651 184.393 488.304 183.868C488.958 183.342 489.441 182.643 489.753 181.769C490.073 180.896 490.233 179.933 490.233 178.882C490.233 177.838 490.073 176.879 489.753 176.006C489.441 175.125 488.958 174.418 488.304 173.886C487.651 173.353 486.827 173.087 485.833 173.087C484.831 173.087 484 173.353 483.34 173.886C482.687 174.418 482.2 175.125 481.88 176.006C481.568 176.879 481.412 177.838 481.412 178.882C481.412 179.933 481.568 180.896 481.88 181.769C482.2 182.643 482.687 183.342 483.34 183.868C484 184.393 484.831 184.656 485.833 184.656ZM500.191 165.182V187H497.006V165.182H500.191ZM514.842 180.214V170.636H518.038V187H514.906V184.166H514.736C514.359 185.04 513.755 185.768 512.924 186.35C512.101 186.925 511.074 187.213 509.846 187.213C508.794 187.213 507.864 186.982 507.054 186.521C506.252 186.052 505.62 185.359 505.158 184.443C504.704 183.527 504.476 182.394 504.476 181.045V170.636H507.662V180.661C507.662 181.776 507.971 182.664 508.589 183.325C509.206 183.985 510.009 184.315 510.996 184.315C511.593 184.315 512.186 184.166 512.775 183.868C513.372 183.57 513.866 183.119 514.256 182.515C514.654 181.911 514.849 181.144 514.842 180.214ZM534.58 174.631L531.693 175.143C531.572 174.773 531.381 174.422 531.118 174.088C530.862 173.754 530.514 173.481 530.074 173.268C529.633 173.055 529.083 172.948 528.422 172.948C527.521 172.948 526.768 173.151 526.164 173.555C525.56 173.953 525.258 174.468 525.258 175.1C525.258 175.647 525.461 176.087 525.866 176.421C526.271 176.755 526.924 177.028 527.826 177.241L530.425 177.838C531.931 178.186 533.053 178.722 533.792 179.447C534.53 180.171 534.9 181.112 534.9 182.27C534.9 183.25 534.616 184.124 534.047 184.891C533.486 185.651 532.702 186.247 531.693 186.68C530.692 187.114 529.53 187.33 528.209 187.33C526.377 187.33 524.882 186.94 523.724 186.158C522.567 185.37 521.856 184.251 521.594 182.803L524.672 182.334C524.864 183.136 525.258 183.744 525.855 184.156C526.452 184.56 527.229 184.763 528.188 184.763C529.232 184.763 530.067 184.546 530.692 184.113C531.317 183.673 531.629 183.136 531.629 182.504C531.629 181.993 531.437 181.563 531.054 181.215C530.677 180.867 530.099 180.604 529.317 180.427L526.547 179.82C525.021 179.472 523.891 178.918 523.16 178.158C522.435 177.398 522.073 176.435 522.073 175.271C522.073 174.305 522.343 173.46 522.883 172.735C523.422 172.011 524.168 171.446 525.12 171.041C526.072 170.629 527.162 170.423 528.391 170.423C530.159 170.423 531.551 170.807 532.567 171.574C533.582 172.334 534.253 173.353 534.58 174.631ZM538.402 187V170.636H541.587V187H538.402ZM540.011 168.112C539.457 168.112 538.981 167.927 538.583 167.558C538.193 167.181 537.997 166.734 537.997 166.215C537.997 165.69 538.193 165.242 538.583 164.873C538.981 164.496 539.457 164.308 540.011 164.308C540.565 164.308 541.037 164.496 541.428 164.873C541.825 165.242 542.024 165.69 542.024 166.215C542.024 166.734 541.825 167.181 541.428 167.558C541.037 167.927 540.565 168.112 540.011 168.112ZM554.068 165.182H558.063L565.009 182.142H565.265L572.211 165.182H576.206V187H573.074V171.212H572.871L566.437 186.968H563.837L557.402 171.201H557.2V187H554.068V165.182ZM591.102 180.214V170.636H594.298V187H591.166V184.166H590.995C590.619 185.04 590.015 185.768 589.184 186.35C588.36 186.925 587.334 187.213 586.105 187.213C585.054 187.213 584.124 186.982 583.314 186.521C582.512 186.052 581.88 185.359 581.418 184.443C580.963 183.527 580.736 182.394 580.736 181.045V170.636H583.921V180.661C583.921 181.776 584.23 182.664 584.848 183.325C585.466 183.985 586.269 184.315 587.256 184.315C587.853 184.315 588.446 184.166 589.035 183.868C589.632 183.57 590.125 183.119 590.516 182.515C590.914 181.911 591.109 181.144 591.102 180.214ZM604.704 187.32C603.383 187.32 602.204 186.982 601.167 186.308C600.137 185.626 599.327 184.656 598.738 183.399C598.155 182.135 597.864 180.619 597.864 178.85C597.864 177.082 598.159 175.569 598.748 174.312C599.345 173.055 600.162 172.092 601.199 171.425C602.236 170.757 603.411 170.423 604.725 170.423C605.741 170.423 606.557 170.594 607.175 170.935C607.8 171.268 608.283 171.659 608.624 172.107C608.972 172.554 609.242 172.948 609.434 173.289H609.625V165.182H612.811V187H609.7V184.454H609.434C609.242 184.802 608.965 185.2 608.603 185.647C608.248 186.094 607.758 186.485 607.133 186.819C606.508 187.153 605.698 187.32 604.704 187.32ZM605.407 184.603C606.323 184.603 607.097 184.362 607.729 183.879C608.368 183.388 608.851 182.71 609.178 181.844C609.512 180.977 609.679 179.969 609.679 178.818C609.679 177.682 609.515 176.687 609.189 175.835C608.862 174.983 608.383 174.319 607.75 173.843C607.118 173.367 606.337 173.129 605.407 173.129C604.448 173.129 603.649 173.378 603.01 173.875C602.37 174.372 601.888 175.05 601.561 175.91C601.241 176.769 601.081 177.739 601.081 178.818C601.081 179.912 601.245 180.896 601.571 181.769C601.898 182.643 602.381 183.335 603.02 183.847C603.667 184.351 604.462 184.603 605.407 184.603ZM622.119 187.362C621.082 187.362 620.145 187.17 619.307 186.787C618.469 186.396 617.805 185.832 617.315 185.093C616.832 184.354 616.59 183.449 616.59 182.376C616.59 181.453 616.768 180.693 617.123 180.097C617.478 179.5 617.957 179.028 618.561 178.68C619.165 178.332 619.839 178.069 620.585 177.891C621.331 177.714 622.091 177.579 622.865 177.487C623.845 177.373 624.641 177.281 625.251 177.21C625.862 177.131 626.306 177.007 626.583 176.837C626.86 176.666 626.998 176.389 626.998 176.006V175.931C626.998 175.001 626.736 174.28 626.21 173.768C625.692 173.257 624.918 173.001 623.888 173.001C622.815 173.001 621.97 173.239 621.352 173.715C620.741 174.184 620.319 174.706 620.084 175.281L617.091 174.599C617.446 173.605 617.964 172.803 618.646 172.192C619.335 171.574 620.127 171.126 621.022 170.849C621.917 170.565 622.858 170.423 623.845 170.423C624.498 170.423 625.191 170.501 625.922 170.658C626.661 170.807 627.35 171.084 627.989 171.489C628.636 171.893 629.165 172.472 629.577 173.225C629.989 173.971 630.195 174.94 630.195 176.134V187H627.084V184.763H626.956C626.75 185.175 626.441 185.58 626.029 185.977C625.617 186.375 625.088 186.705 624.442 186.968C623.795 187.231 623.021 187.362 622.119 187.362ZM622.812 184.805C623.692 184.805 624.445 184.631 625.07 184.283C625.702 183.935 626.182 183.481 626.508 182.92C626.842 182.352 627.009 181.744 627.009 181.098V178.989C626.896 179.102 626.675 179.209 626.349 179.308C626.029 179.401 625.663 179.482 625.251 179.553C624.839 179.617 624.438 179.678 624.047 179.734C623.657 179.784 623.33 179.827 623.067 179.862C622.449 179.94 621.885 180.072 621.373 180.256C620.869 180.441 620.464 180.707 620.159 181.055C619.861 181.396 619.712 181.851 619.712 182.419C619.712 183.207 620.003 183.804 620.585 184.209C621.168 184.607 621.91 184.805 622.812 184.805ZM637.623 177.284V187H634.437V165.182H637.58V173.3H637.782C638.166 172.419 638.752 171.719 639.54 171.201C640.329 170.683 641.358 170.423 642.63 170.423C643.752 170.423 644.732 170.654 645.57 171.116C646.415 171.577 647.069 172.266 647.53 173.183C647.999 174.092 648.233 175.228 648.233 176.592V187H645.048V176.975C645.048 175.775 644.739 174.844 644.121 174.184C643.503 173.516 642.644 173.183 641.543 173.183C640.79 173.183 640.116 173.342 639.519 173.662C638.929 173.982 638.464 174.45 638.123 175.068C637.79 175.679 637.623 176.418 637.623 177.284ZM672.579 170.913C672.465 169.905 671.997 169.124 671.173 168.57C670.349 168.009 669.312 167.728 668.062 167.728C667.167 167.728 666.393 167.87 665.74 168.154C665.086 168.431 664.578 168.815 664.216 169.305C663.861 169.788 663.684 170.338 663.684 170.956C663.684 171.474 663.804 171.922 664.046 172.298C664.294 172.675 664.617 172.991 665.015 173.246C665.42 173.495 665.853 173.705 666.315 173.875C666.777 174.038 667.22 174.173 667.647 174.28L669.777 174.834C670.473 175.004 671.187 175.235 671.919 175.526C672.65 175.817 673.328 176.201 673.953 176.677C674.578 177.153 675.083 177.742 675.466 178.445C675.857 179.148 676.052 179.99 676.052 180.97C676.052 182.206 675.733 183.303 675.093 184.262C674.461 185.221 673.541 185.977 672.334 186.531C671.134 187.085 669.681 187.362 667.977 187.362C666.343 187.362 664.93 187.103 663.737 186.585C662.544 186.066 661.61 185.331 660.935 184.379C660.26 183.42 659.887 182.284 659.816 180.97H663.119C663.183 181.759 663.438 182.415 663.886 182.941C664.34 183.46 664.919 183.847 665.622 184.102C666.333 184.351 667.11 184.475 667.956 184.475C668.886 184.475 669.713 184.33 670.438 184.038C671.169 183.74 671.745 183.328 672.164 182.803C672.583 182.27 672.792 181.648 672.792 180.938C672.792 180.292 672.608 179.763 672.238 179.351C671.876 178.939 671.382 178.598 670.757 178.328C670.139 178.058 669.44 177.82 668.659 177.614L666.081 176.911C664.333 176.435 662.948 175.736 661.926 174.812C660.91 173.889 660.402 172.668 660.402 171.148C660.402 169.891 660.743 168.793 661.425 167.856C662.107 166.918 663.03 166.19 664.195 165.672C665.36 165.146 666.674 164.884 668.137 164.884C669.614 164.884 670.917 165.143 672.046 165.661C673.183 166.18 674.078 166.893 674.731 167.803C675.385 168.705 675.725 169.741 675.754 170.913H672.579ZM686.783 187.33C685.171 187.33 683.782 186.986 682.617 186.297C681.46 185.601 680.565 184.624 679.933 183.367C679.308 182.103 678.995 180.622 678.995 178.925C678.995 177.249 679.308 175.771 679.933 174.493C680.565 173.214 681.445 172.217 682.575 171.499C683.711 170.782 685.039 170.423 686.559 170.423C687.482 170.423 688.377 170.576 689.244 170.881C690.11 171.187 690.888 171.666 691.577 172.32C692.266 172.973 692.809 173.822 693.207 174.866C693.604 175.903 693.803 177.163 693.803 178.648V179.777H680.796V177.391H690.682C690.682 176.553 690.511 175.81 690.171 175.164C689.83 174.511 689.35 173.996 688.732 173.619C688.122 173.243 687.404 173.055 686.58 173.055C685.685 173.055 684.904 173.275 684.237 173.715C683.576 174.148 683.065 174.717 682.703 175.42C682.347 176.116 682.17 176.872 682.17 177.689V179.553C682.17 180.647 682.362 181.577 682.745 182.344C683.136 183.112 683.679 183.697 684.375 184.102C685.071 184.5 685.884 184.699 686.815 184.699C687.418 184.699 687.969 184.614 688.466 184.443C688.963 184.266 689.393 184.003 689.755 183.655C690.117 183.307 690.394 182.877 690.586 182.366L693.601 182.909C693.359 183.797 692.926 184.575 692.301 185.242C691.683 185.903 690.906 186.418 689.968 186.787C689.038 187.149 687.976 187.33 686.783 187.33ZM700.856 187L696.041 170.636H699.332L702.539 182.653H702.699L705.916 170.636H709.208L712.404 182.6H712.564L715.749 170.636H719.041L714.237 187H710.987L707.663 175.185H707.418L704.095 187H700.856ZM726.826 187.362C725.789 187.362 724.852 187.17 724.014 186.787C723.176 186.396 722.512 185.832 722.022 185.093C721.539 184.354 721.297 183.449 721.297 182.376C721.297 181.453 721.475 180.693 721.83 180.097C722.185 179.5 722.664 179.028 723.268 178.68C723.872 178.332 724.546 178.069 725.292 177.891C726.038 177.714 726.798 177.579 727.572 177.487C728.552 177.373 729.348 177.281 729.958 177.21C730.569 177.131 731.013 177.007 731.29 176.837C731.567 176.666 731.706 176.389 731.706 176.006V175.931C731.706 175.001 731.443 174.28 730.917 173.768C730.399 173.257 729.625 173.001 728.595 173.001C727.522 173.001 726.677 173.239 726.059 173.715C725.448 174.184 725.026 174.706 724.791 175.281L721.798 174.599C722.153 173.605 722.671 172.803 723.353 172.192C724.042 171.574 724.834 171.126 725.729 170.849C726.624 170.565 727.565 170.423 728.552 170.423C729.206 170.423 729.898 170.501 730.63 170.658C731.368 170.807 732.057 171.084 732.696 171.489C733.343 171.893 733.872 172.472 734.284 173.225C734.696 173.971 734.902 174.94 734.902 176.134V187H731.791V184.763H731.663C731.457 185.175 731.148 185.58 730.736 185.977C730.324 186.375 729.795 186.705 729.149 186.968C728.502 187.231 727.728 187.362 726.826 187.362ZM727.519 184.805C728.399 184.805 729.152 184.631 729.777 184.283C730.409 183.935 730.889 183.481 731.215 182.92C731.549 182.352 731.716 181.744 731.716 181.098V178.989C731.603 179.102 731.382 179.209 731.056 179.308C730.736 179.401 730.37 179.482 729.958 179.553C729.546 179.617 729.145 179.678 728.755 179.734C728.364 179.784 728.037 179.827 727.774 179.862C727.157 179.94 726.592 180.072 726.081 180.256C725.576 180.441 725.171 180.707 724.866 181.055C724.568 181.396 724.419 181.851 724.419 182.419C724.419 183.207 724.71 183.804 725.292 184.209C725.875 184.607 726.617 184.805 727.519 184.805ZM747.339 165.182H751.334L758.28 182.142H758.536L765.482 165.182H769.477V187H766.345V171.212H766.143L759.708 186.968H757.109L750.674 171.201H750.472V187H747.339V165.182ZM780.9 187.33C779.366 187.33 778.027 186.979 776.884 186.276C775.741 185.572 774.853 184.589 774.221 183.325C773.589 182.06 773.272 180.583 773.272 178.893C773.272 177.195 773.589 175.711 774.221 174.44C774.853 173.168 775.741 172.181 776.884 171.478C778.027 170.775 779.366 170.423 780.9 170.423C782.434 170.423 783.773 170.775 784.917 171.478C786.06 172.181 786.948 173.168 787.58 174.44C788.212 175.711 788.528 177.195 788.528 178.893C788.528 180.583 788.212 182.06 787.58 183.325C786.948 184.589 786.06 185.572 784.917 186.276C783.773 186.979 782.434 187.33 780.9 187.33ZM780.911 184.656C781.905 184.656 782.729 184.393 783.383 183.868C784.036 183.342 784.519 182.643 784.831 181.769C785.151 180.896 785.311 179.933 785.311 178.882C785.311 177.838 785.151 176.879 784.831 176.006C784.519 175.125 784.036 174.418 783.383 173.886C782.729 173.353 781.905 173.087 780.911 173.087C779.91 173.087 779.079 173.353 778.418 173.886C777.765 174.418 777.278 175.125 776.959 176.006C776.646 176.879 776.49 177.838 776.49 178.882C776.49 179.933 776.646 180.896 776.959 181.769C777.278 182.643 777.765 183.342 778.418 183.868C779.079 184.393 779.91 184.656 780.911 184.656ZM799.722 170.636V173.193H790.784V170.636H799.722ZM793.181 166.716H796.366V182.195C796.366 182.813 796.459 183.278 796.643 183.591C796.828 183.896 797.066 184.106 797.357 184.219C797.655 184.326 797.979 184.379 798.327 184.379C798.582 184.379 798.806 184.362 798.998 184.326C799.19 184.29 799.339 184.262 799.445 184.241L800.021 186.872C799.836 186.943 799.573 187.014 799.232 187.085C798.891 187.163 798.465 187.206 797.954 187.213C797.116 187.227 796.334 187.078 795.61 186.766C794.886 186.453 794.3 185.97 793.852 185.317C793.405 184.663 793.181 183.843 793.181 182.856V166.716ZM809.963 187.33C808.429 187.33 807.09 186.979 805.946 186.276C804.803 185.572 803.915 184.589 803.283 183.325C802.651 182.06 802.335 180.583 802.335 178.893C802.335 177.195 802.651 175.711 803.283 174.44C803.915 173.168 804.803 172.181 805.946 171.478C807.09 170.775 808.429 170.423 809.963 170.423C811.497 170.423 812.836 170.775 813.979 171.478C815.123 172.181 816.01 173.168 816.642 174.44C817.275 175.711 817.591 177.195 817.591 178.893C817.591 180.583 817.275 182.06 816.642 183.325C816.01 184.589 815.123 185.572 813.979 186.276C812.836 186.979 811.497 187.33 809.963 187.33ZM809.973 184.656C810.968 184.656 811.792 184.393 812.445 183.868C813.098 183.342 813.581 182.643 813.894 181.769C814.214 180.896 814.373 179.933 814.373 178.882C814.373 177.838 814.214 176.879 813.894 176.006C813.581 175.125 813.098 174.418 812.445 173.886C811.792 173.353 810.968 173.087 809.973 173.087C808.972 173.087 808.141 173.353 807.481 173.886C806.827 174.418 806.341 175.125 806.021 176.006C805.709 176.879 805.552 177.838 805.552 178.882C805.552 179.933 805.709 180.896 806.021 181.769C806.341 182.643 806.827 183.342 807.481 183.868C808.141 184.393 808.972 184.656 809.973 184.656ZM821.146 187V170.636H824.225V173.236H824.396C824.694 172.355 825.219 171.663 825.972 171.158C826.732 170.647 827.592 170.391 828.55 170.391C828.749 170.391 828.984 170.398 829.253 170.413C829.53 170.427 829.747 170.445 829.903 170.466V173.513C829.775 173.477 829.548 173.438 829.222 173.396C828.895 173.346 828.568 173.321 828.241 173.321C827.489 173.321 826.817 173.481 826.228 173.8C825.646 174.113 825.184 174.55 824.843 175.111C824.502 175.665 824.332 176.297 824.332 177.007V187H821.146Z" fill="black"/>
<line x1="362" y1="179.5" x2="444" y2="179.5" stroke="black" stroke-width="3"/>
<line x1="839" y1="179.5" x2="921" y2="179.5" stroke="black" stroke-width="3"/>
</svg>
