<svg width="601" height="600" viewBox="0 0 601 600" fill="none" xmlns="http://www.w3.org/2000/svg">
<rect x="1" width="600" height="600" fill="#1D293D"/>
<path d="M319.334 99.073C314.73 81.7953 298.535 69 279.409 69C256.559 69 238.104 86.8889 238.104 109.097C238.104 112.846 238.564 116.269 239.527 119.611H256.099C257.313 122.382 258.652 123.971 258.652 123.971C263.632 130.98 271.96 135.503 281.376 135.503C296.651 135.503 309.081 123.4 309.081 108.527C309.081 105.104 309.959 102.007 308.495 99.073H319.334Z" fill="white"/>
<path d="M318.204 338.883C313.852 343.161 307.867 346.462 301.129 346.462L301.087 259.055L363.192 241.696L378.76 271.524L318.204 338.883Z" fill="white"/>
<path d="M266.059 138.967C261.958 134.525 256.057 131.713 249.403 131.713C242.331 131.713 236.011 134.892 231.952 139.904L182.653 213.212C180.644 216.472 179.514 220.302 179.514 224.336C179.514 231.916 183.448 238.517 189.391 242.388L255.513 278.125V338.923C255.513 347.521 262.67 354.53 271.5 354.53C280.288 354.53 287.486 347.521 287.486 338.923V263.007C287.486 263.007 289.579 250.905 275.475 244.304L234.254 223.277L264.302 178.616L280.246 202.984C283.427 207.914 287.737 209.83 291.671 209.748L332.6 209.585C349.256 209.585 349.256 188.477 332.6 188.558H299.413L266.059 138.967Z" fill="white"/>
<path d="M447.268 238.599C447.938 239.251 448.272 240.025 448.272 241.084C448.272 243 446.64 244.589 444.673 244.589C444.129 244.589 443.795 244.589 443.376 244.426C436.303 241.492 431.825 239.658 423.581 239.658C418.141 239.658 411.403 241.492 403.619 247.604L396.421 233.749C405.418 231.142 412.784 228.819 420.484 228.819C432.788 228.819 439.233 231.305 447.268 238.599Z" fill="white"/>
<path d="M172.316 249.275L241.703 286.52L241.87 301.475L162.607 258.973C156.874 256.121 149.174 254.45 143.691 254.45C135.531 254.45 130.969 256.284 123.938 259.218C123.478 259.381 123.101 259.381 122.641 259.381C120.674 259.381 119 257.791 119 255.876C119 254.858 119.418 254.043 120.046 253.391C128.081 246.056 136.284 243.611 148.546 243.611C154.865 243.611 162.482 244.344 172.316 249.275Z" fill="white"/>
<path d="M178.761 386.315C201.36 386.315 219.69 368.467 219.69 346.421C219.69 324.376 201.36 306.528 178.761 306.528C156.162 306.528 137.832 324.376 137.832 346.421C137.832 368.467 156.162 386.315 178.761 386.315ZM119.711 346.462C119.711 314.718 146.16 288.924 178.761 288.924C211.404 288.924 237.853 314.718 237.853 346.462C237.853 378.206 211.404 404 178.761 404C146.16 404 119.711 378.206 119.711 346.462Z" fill="white"/>
<path d="M422.995 386.315C445.594 386.315 463.966 368.467 463.966 346.421C463.966 324.376 445.636 306.528 422.995 306.528C400.355 306.528 382.066 324.376 382.066 346.421C382.066 368.467 400.396 386.315 422.995 386.315ZM363.945 346.462C363.945 314.718 390.352 288.924 422.995 288.924C455.596 288.924 482.045 314.718 482.045 346.462C482.045 378.206 455.596 404 422.995 404C390.352 404 363.945 378.206 363.945 346.462Z" fill="white"/>
<path d="M409.938 280.693L381.229 224.825C377.463 218.142 370.139 213.538 361.727 213.538H342.979C339.338 213.538 336.367 216.472 336.367 220.058C336.367 223.644 339.338 226.496 342.979 226.496L361.727 226.415C364.866 226.415 368.381 228.493 369.721 231.508L396.755 285.134L409.938 280.693Z" fill="white"/>
<path d="M81.5182 453.214C81.3165 451.18 80.4508 449.6 78.9213 448.474C77.3917 447.348 75.3158 446.785 72.6936 446.785C70.9119 446.785 69.4075 447.037 68.1805 447.541C66.9535 448.029 66.0122 448.709 65.3566 449.583C64.7179 450.458 64.3985 451.449 64.3985 452.559C64.3649 453.483 64.5582 454.29 64.9784 454.979C65.4155 455.668 66.0122 456.265 66.7686 456.769C67.5249 457.257 68.399 457.685 69.3907 458.055C70.3824 458.408 71.4414 458.711 72.5676 458.963L77.2068 460.072C79.4591 460.576 81.5266 461.249 83.4092 462.089C85.2918 462.93 86.9222 463.963 88.3005 465.19C89.6788 466.417 90.7462 467.863 91.5026 469.527C92.2758 471.191 92.6708 473.099 92.6876 475.25C92.6708 478.41 91.864 481.15 90.2671 483.47C88.6871 485.773 86.4011 487.563 83.4092 488.84C80.434 490.101 76.8454 490.731 72.6432 490.731C68.4746 490.731 64.844 490.092 61.7512 488.815C58.6752 487.538 56.2715 485.647 54.5402 483.142C52.8257 480.621 51.9265 477.503 51.8424 473.788H62.4067C62.5244 475.519 63.0202 476.965 63.8943 478.125C64.7851 479.268 65.9701 480.133 67.4493 480.722C68.9453 481.293 70.6346 481.579 72.5171 481.579C74.3661 481.579 75.9713 481.31 77.3328 480.772C78.7111 480.234 79.7785 479.486 80.5349 478.528C81.2913 477.57 81.6695 476.469 81.6695 475.225C81.6695 474.065 81.3249 473.09 80.6357 472.3C79.9634 471.51 78.9717 470.838 77.6606 470.283C76.3663 469.729 74.7779 469.224 72.8953 468.771L67.2728 467.359C62.9194 466.3 59.482 464.644 56.9607 462.392C54.4394 460.139 53.1871 457.105 53.2039 453.29C53.1871 450.163 54.0191 447.432 55.7 445.096C57.3977 442.759 59.7257 440.935 62.684 439.624C65.6424 438.313 69.0041 437.658 72.7693 437.658C76.6017 437.658 79.9466 438.313 82.8041 439.624C85.6784 440.935 87.9139 442.759 89.5107 445.096C91.1076 447.432 91.9312 450.138 91.9816 453.214H81.5182ZM117.478 490.756C113.495 490.756 110.066 489.95 107.191 488.336C104.334 486.705 102.132 484.403 100.586 481.428C99.0392 478.436 98.266 474.897 98.266 470.813C98.266 466.829 99.0392 463.333 100.586 460.324C102.132 457.315 104.309 454.971 107.116 453.29C109.94 451.609 113.251 450.768 117.05 450.768C119.605 450.768 121.983 451.18 124.185 452.004C126.404 452.811 128.337 454.029 129.984 455.66C131.648 457.29 132.942 459.341 133.867 461.812C134.791 464.266 135.254 467.14 135.254 470.435V473.385H102.552V466.728H125.143C125.143 465.182 124.807 463.812 124.135 462.619C123.462 461.425 122.529 460.492 121.336 459.82C120.159 459.131 118.789 458.786 117.226 458.786C115.596 458.786 114.15 459.164 112.89 459.921C111.646 460.66 110.671 461.661 109.965 462.921C109.259 464.165 108.897 465.552 108.881 467.081V473.41C108.881 475.326 109.234 476.982 109.94 478.377C110.662 479.772 111.679 480.848 112.99 481.604C114.301 482.36 115.856 482.739 117.655 482.739C118.848 482.739 119.941 482.571 120.933 482.234C121.924 481.898 122.773 481.394 123.479 480.722C124.185 480.049 124.723 479.226 125.093 478.251L135.027 478.906C134.522 481.293 133.489 483.377 131.925 485.159C130.379 486.924 128.379 488.302 125.925 489.294C123.487 490.269 120.672 490.756 117.478 490.756ZM149.625 490L139.086 451.273H149.953L155.953 477.293H156.306L162.559 451.273H173.224L179.578 477.141H179.906L185.806 451.273H196.647L186.134 490H174.762L168.106 465.644H167.627L160.971 490H149.625ZM213.42 490.731C210.949 490.731 208.748 490.303 206.815 489.445C204.882 488.571 203.352 487.285 202.226 485.588C201.116 483.873 200.562 481.739 200.562 479.184C200.562 477.032 200.957 475.225 201.747 473.763C202.537 472.3 203.612 471.124 204.974 470.233C206.335 469.342 207.882 468.67 209.613 468.216C211.361 467.762 213.193 467.443 215.11 467.258C217.362 467.022 219.177 466.804 220.556 466.602C221.934 466.384 222.934 466.064 223.556 465.644C224.178 465.224 224.489 464.602 224.489 463.778V463.627C224.489 462.03 223.985 460.795 222.976 459.921C221.984 459.047 220.572 458.61 218.74 458.61C216.807 458.61 215.269 459.038 214.126 459.896C212.983 460.736 212.227 461.795 211.857 463.072L201.923 462.266C202.427 459.912 203.419 457.879 204.898 456.164C206.378 454.433 208.285 453.105 210.622 452.18C212.975 451.239 215.698 450.768 218.791 450.768C220.942 450.768 223.001 451.021 224.968 451.525C226.951 452.029 228.708 452.811 230.237 453.87C231.784 454.929 233.003 456.29 233.893 457.954C234.784 459.601 235.23 461.576 235.23 463.879V490H225.044V484.63H224.741C224.119 485.84 223.287 486.907 222.245 487.832C221.203 488.739 219.951 489.454 218.488 489.975C217.026 490.479 215.337 490.731 213.42 490.731ZM216.496 483.319C218.076 483.319 219.472 483.008 220.682 482.386C221.892 481.747 222.842 480.89 223.531 479.814C224.22 478.738 224.565 477.52 224.565 476.158V472.048C224.228 472.267 223.766 472.469 223.178 472.653C222.606 472.821 221.959 472.981 221.236 473.132C220.514 473.267 219.791 473.393 219.068 473.511C218.345 473.612 217.69 473.704 217.101 473.788C215.841 473.973 214.74 474.267 213.799 474.67C212.857 475.074 212.126 475.62 211.605 476.309C211.084 476.982 210.823 477.822 210.823 478.831C210.823 480.293 211.353 481.411 212.412 482.184C213.488 482.94 214.849 483.319 216.496 483.319ZM260.197 438.364H273.661L287.881 473.057H288.486L302.706 438.364H316.17V490H305.58V456.391H305.152L291.789 489.748H284.578L271.215 456.265H270.786V490H260.197V438.364ZM342.461 490.756C338.544 490.756 335.157 489.924 332.3 488.26C329.459 486.579 327.266 484.243 325.719 481.251C324.173 478.242 323.4 474.754 323.4 470.788C323.4 466.787 324.173 463.291 325.719 460.299C327.266 457.29 329.459 454.954 332.3 453.29C335.157 451.609 338.544 450.768 342.461 450.768C346.377 450.768 349.756 451.609 352.597 453.29C355.454 454.954 357.656 457.29 359.202 460.299C360.749 463.291 361.522 466.787 361.522 470.788C361.522 474.754 360.749 478.242 359.202 481.251C357.656 484.243 355.454 486.579 352.597 488.26C349.756 489.924 346.377 490.756 342.461 490.756ZM342.511 482.436C344.293 482.436 345.781 481.932 346.974 480.923C348.167 479.898 349.067 478.503 349.672 476.738C350.294 474.973 350.605 472.964 350.605 470.712C350.605 468.46 350.294 466.451 349.672 464.686C349.067 462.921 348.167 461.526 346.974 460.501C345.781 459.475 344.293 458.963 342.511 458.963C340.713 458.963 339.2 459.475 337.973 460.501C336.763 461.526 335.847 462.921 335.225 464.686C334.62 466.451 334.317 468.46 334.317 470.712C334.317 472.964 334.62 474.973 335.225 476.738C335.847 478.503 336.763 479.898 337.973 480.923C339.2 481.932 340.713 482.436 342.511 482.436ZM389.105 451.273V459.341H365.783V451.273H389.105ZM371.078 441.994H381.818V478.099C381.818 479.091 381.97 479.864 382.272 480.419C382.575 480.957 382.995 481.335 383.533 481.554C384.088 481.772 384.726 481.881 385.449 481.881C385.953 481.881 386.458 481.839 386.962 481.755C387.466 481.654 387.853 481.579 388.122 481.528L389.811 489.521C389.273 489.689 388.517 489.882 387.542 490.101C386.567 490.336 385.382 490.479 383.987 490.529C381.398 490.63 379.129 490.286 377.179 489.496C375.246 488.706 373.742 487.479 372.666 485.815C371.59 484.151 371.061 482.049 371.078 479.511V441.994ZM413.184 490.756C409.267 490.756 405.88 489.924 403.023 488.26C400.182 486.579 397.988 484.243 396.442 481.251C394.896 478.242 394.122 474.754 394.122 470.788C394.122 466.787 394.896 463.291 396.442 460.299C397.988 457.29 400.182 454.954 403.023 453.29C405.88 451.609 409.267 450.768 413.184 450.768C417.1 450.768 420.478 451.609 423.319 453.29C426.177 454.954 428.379 457.29 429.925 460.299C431.471 463.291 432.245 466.787 432.245 470.788C432.245 474.754 431.471 478.242 429.925 481.251C428.379 484.243 426.177 486.579 423.319 488.26C420.478 489.924 417.1 490.756 413.184 490.756ZM413.234 482.436C415.016 482.436 416.503 481.932 417.697 480.923C418.89 479.898 419.789 478.503 420.394 476.738C421.016 474.973 421.327 472.964 421.327 470.712C421.327 468.46 421.016 466.451 420.394 464.686C419.789 462.921 418.89 461.526 417.697 460.501C416.503 459.475 415.016 458.963 413.234 458.963C411.435 458.963 409.923 459.475 408.696 460.501C407.485 461.526 406.569 462.921 405.947 464.686C405.342 466.451 405.04 468.46 405.04 470.712C405.04 472.964 405.342 474.973 405.947 476.738C406.569 478.503 407.485 479.898 408.696 480.923C409.923 481.932 411.435 482.436 413.234 482.436ZM439.229 490V451.273H449.642V458.03H450.045C450.751 455.626 451.936 453.811 453.6 452.584C455.264 451.34 457.18 450.718 459.349 450.718C459.887 450.718 460.466 450.752 461.088 450.819C461.71 450.886 462.257 450.979 462.727 451.096V460.627C462.223 460.475 461.525 460.341 460.635 460.223C459.744 460.106 458.928 460.047 458.189 460.047C456.609 460.047 455.197 460.391 453.953 461.081C452.726 461.753 451.751 462.694 451.028 463.904C450.322 465.115 449.969 466.51 449.969 468.09V490H439.229ZM495.832 438.364V490H484.915V438.364H495.832ZM523.119 490H504.814V438.364H523.27C528.464 438.364 532.935 439.397 536.683 441.465C540.432 443.516 543.314 446.465 545.332 450.315C547.365 454.164 548.382 458.769 548.382 464.131C548.382 469.51 547.365 474.133 545.332 477.999C543.314 481.865 540.415 484.831 536.633 486.899C532.868 488.966 528.363 490 523.119 490ZM515.731 480.646H522.665C525.892 480.646 528.607 480.074 530.809 478.931C533.028 477.772 534.692 475.982 535.801 473.561C536.927 471.124 537.49 467.981 537.49 464.131C537.49 460.316 536.927 457.198 535.801 454.777C534.692 452.357 533.036 450.575 530.834 449.432C528.632 448.289 525.917 447.718 522.69 447.718H515.731V480.646Z" fill="white"/>
<path d="M147.606 522.139C147.504 521.231 147.082 520.528 146.341 520.03C145.599 519.525 144.666 519.272 143.541 519.272C142.736 519.272 142.039 519.4 141.451 519.656C140.863 519.905 140.406 520.25 140.08 520.691C139.76 521.126 139.6 521.621 139.6 522.177C139.6 522.644 139.709 523.047 139.926 523.386C140.15 523.724 140.441 524.009 140.799 524.239C141.163 524.463 141.553 524.651 141.969 524.805C142.384 524.952 142.783 525.073 143.167 525.169L145.085 525.667C145.711 525.821 146.353 526.029 147.012 526.291C147.67 526.553 148.281 526.898 148.843 527.326C149.406 527.754 149.859 528.285 150.205 528.918C150.556 529.551 150.732 530.308 150.732 531.19C150.732 532.302 150.444 533.29 149.869 534.153C149.3 535.016 148.472 535.697 147.386 536.195C146.306 536.694 144.998 536.943 143.464 536.943C141.994 536.943 140.722 536.71 139.648 536.243C138.574 535.777 137.734 535.115 137.127 534.258C136.519 533.395 136.184 532.373 136.12 531.19H139.092C139.15 531.9 139.38 532.491 139.782 532.964C140.192 533.431 140.712 533.779 141.345 534.009C141.984 534.233 142.684 534.345 143.445 534.345C144.282 534.345 145.027 534.214 145.679 533.952C146.337 533.683 146.855 533.312 147.232 532.839C147.609 532.36 147.798 531.801 147.798 531.161C147.798 530.58 147.632 530.104 147.299 529.733C146.973 529.362 146.529 529.055 145.967 528.812C145.411 528.569 144.781 528.355 144.078 528.17L141.758 527.537C140.185 527.109 138.939 526.479 138.018 525.648C137.104 524.817 136.647 523.718 136.647 522.35C136.647 521.219 136.954 520.231 137.568 519.387C138.181 518.544 139.012 517.888 140.06 517.422C141.109 516.949 142.291 516.712 143.608 516.712C144.938 516.712 146.111 516.946 147.127 517.412C148.15 517.879 148.955 518.521 149.543 519.339C150.131 520.151 150.438 521.084 150.464 522.139H147.606ZM160.246 536.914C158.865 536.914 157.66 536.598 156.631 535.965C155.602 535.332 154.803 534.447 154.234 533.309C153.665 532.171 153.381 530.842 153.381 529.321C153.381 527.793 153.665 526.457 154.234 525.313C154.803 524.169 155.602 523.28 156.631 522.647C157.66 522.014 158.865 521.698 160.246 521.698C161.626 521.698 162.831 522.014 163.86 522.647C164.89 523.28 165.689 524.169 166.257 525.313C166.826 526.457 167.111 527.793 167.111 529.321C167.111 530.842 166.826 532.171 166.257 533.309C165.689 534.447 164.89 535.332 163.86 535.965C162.831 536.598 161.626 536.914 160.246 536.914ZM160.255 534.508C161.15 534.508 161.892 534.271 162.48 533.798C163.068 533.325 163.503 532.696 163.784 531.909C164.071 531.123 164.215 530.257 164.215 529.311C164.215 528.371 164.071 527.508 163.784 526.722C163.503 525.93 163.068 525.294 162.48 524.814C161.892 524.335 161.15 524.095 160.255 524.095C159.354 524.095 158.606 524.335 158.012 524.814C157.424 525.294 156.986 525.93 156.698 526.722C156.417 527.508 156.276 528.371 156.276 529.311C156.276 530.257 156.417 531.123 156.698 531.909C156.986 532.696 157.424 533.325 158.012 533.798C158.606 534.271 159.354 534.508 160.255 534.508ZM173.178 516.981V536.617H170.311V516.981H173.178ZM186.364 530.509V521.89H189.24V536.617H186.421V534.067H186.268C185.929 534.853 185.386 535.508 184.638 536.032C183.896 536.55 182.973 536.809 181.867 536.809C180.921 536.809 180.083 536.601 179.355 536.186C178.632 535.764 178.064 535.14 177.648 534.316C177.239 533.491 177.034 532.472 177.034 531.257V521.89H179.901V530.912C179.901 531.916 180.179 532.715 180.735 533.309C181.292 533.904 182.014 534.201 182.902 534.201C183.439 534.201 183.973 534.067 184.504 533.798C185.041 533.53 185.485 533.124 185.836 532.58C186.194 532.037 186.37 531.347 186.364 530.509ZM204.128 525.485L201.53 525.946C201.421 525.613 201.248 525.297 201.012 524.996C200.782 524.696 200.469 524.45 200.072 524.258C199.676 524.066 199.181 523.97 198.586 523.97C197.774 523.97 197.097 524.153 196.553 524.517C196.01 524.875 195.738 525.338 195.738 525.907C195.738 526.399 195.921 526.796 196.285 527.096C196.649 527.397 197.237 527.643 198.049 527.834L200.389 528.371C201.744 528.685 202.754 529.167 203.418 529.819C204.083 530.471 204.416 531.318 204.416 532.36C204.416 533.242 204.16 534.028 203.649 534.719C203.144 535.403 202.437 535.94 201.53 536.329C200.628 536.719 199.583 536.914 198.394 536.914C196.745 536.914 195.4 536.563 194.358 535.86C193.316 535.15 192.677 534.143 192.44 532.839L195.211 532.417C195.384 533.14 195.738 533.686 196.275 534.057C196.812 534.421 197.512 534.604 198.375 534.604C199.315 534.604 200.066 534.409 200.628 534.019C201.191 533.622 201.472 533.14 201.472 532.571C201.472 532.111 201.299 531.724 200.954 531.411C200.616 531.098 200.095 530.861 199.391 530.701L196.899 530.155C195.524 529.841 194.508 529.343 193.85 528.659C193.198 527.975 192.872 527.109 192.872 526.061C192.872 525.191 193.114 524.431 193.6 523.779C194.086 523.127 194.757 522.618 195.614 522.254C196.47 521.883 197.451 521.698 198.557 521.698C200.149 521.698 201.402 522.043 202.316 522.734C203.23 523.417 203.834 524.335 204.128 525.485ZM207.568 536.617V521.89H210.435V536.617H207.568ZM209.015 519.617C208.517 519.617 208.089 519.451 207.731 519.119C207.379 518.78 207.203 518.377 207.203 517.911C207.203 517.438 207.379 517.035 207.731 516.703C208.089 516.364 208.517 516.194 209.015 516.194C209.514 516.194 209.939 516.364 210.291 516.703C210.649 517.035 210.828 517.438 210.828 517.911C210.828 518.377 210.649 518.78 210.291 519.119C209.939 519.451 209.514 519.617 209.015 519.617ZM221.667 516.981H225.262L231.514 532.245H231.744L237.995 516.981H241.591V536.617H238.772V522.408H238.59L232.799 536.588H230.459L224.668 522.398H224.486V536.617H221.667V516.981ZM254.997 530.509V521.89H257.874V536.617H255.055V534.067H254.902C254.563 534.853 254.019 535.508 253.272 536.032C252.53 536.55 251.606 536.809 250.501 536.809C249.555 536.809 248.717 536.601 247.989 536.186C247.266 535.764 246.697 535.14 246.282 534.316C245.873 533.491 245.668 532.472 245.668 531.257V521.89H248.535V530.912C248.535 531.916 248.813 532.715 249.369 533.309C249.925 533.904 250.648 534.201 251.536 534.201C252.073 534.201 252.607 534.067 253.137 533.798C253.674 533.53 254.119 533.124 254.47 532.58C254.828 532.037 255.004 531.347 254.997 530.509ZM267.239 536.905C266.05 536.905 264.989 536.601 264.056 535.994C263.129 535.38 262.4 534.508 261.87 533.376C261.346 532.239 261.083 530.874 261.083 529.282C261.083 527.691 261.349 526.329 261.879 525.198C262.416 524.066 263.151 523.2 264.085 522.599C265.018 521.998 266.076 521.698 267.258 521.698C268.172 521.698 268.907 521.851 269.463 522.158C270.026 522.459 270.461 522.81 270.767 523.213C271.081 523.616 271.324 523.97 271.496 524.277H271.669V516.981H274.536V536.617H271.736V534.326H271.496C271.324 534.639 271.074 534.997 270.748 535.399C270.429 535.802 269.988 536.154 269.425 536.454C268.863 536.754 268.134 536.905 267.239 536.905ZM267.872 534.46C268.696 534.46 269.393 534.242 269.962 533.808C270.537 533.367 270.972 532.756 271.266 531.976C271.566 531.197 271.717 530.289 271.717 529.253C271.717 528.231 271.57 527.336 271.276 526.569C270.982 525.802 270.55 525.204 269.981 524.776C269.412 524.348 268.709 524.133 267.872 524.133C267.009 524.133 266.29 524.357 265.715 524.805C265.139 525.252 264.705 525.862 264.411 526.636C264.123 527.409 263.979 528.282 263.979 529.253C263.979 530.238 264.126 531.123 264.42 531.909C264.714 532.696 265.149 533.319 265.724 533.779C266.306 534.233 267.022 534.46 267.872 534.46ZM282.913 536.943C281.98 536.943 281.136 536.77 280.382 536.425C279.628 536.074 279.03 535.566 278.589 534.901C278.154 534.236 277.937 533.421 277.937 532.456C277.937 531.625 278.097 530.941 278.416 530.404C278.736 529.867 279.167 529.442 279.711 529.129C280.254 528.816 280.861 528.579 281.532 528.419C282.204 528.259 282.888 528.138 283.584 528.055C284.466 527.953 285.182 527.87 285.732 527.806C286.282 527.735 286.681 527.623 286.931 527.47C287.18 527.317 287.304 527.067 287.304 526.722V526.655C287.304 525.818 287.068 525.169 286.595 524.709C286.128 524.248 285.432 524.018 284.505 524.018C283.54 524.018 282.779 524.232 282.223 524.661C281.673 525.083 281.293 525.552 281.082 526.07L278.388 525.457C278.707 524.562 279.174 523.839 279.787 523.29C280.407 522.734 281.12 522.331 281.926 522.082C282.731 521.826 283.578 521.698 284.466 521.698C285.054 521.698 285.678 521.768 286.336 521.909C287.001 522.043 287.621 522.292 288.196 522.657C288.778 523.021 289.254 523.542 289.625 524.22C289.995 524.891 290.181 525.763 290.181 526.837V536.617H287.381V534.604H287.266C287.081 534.974 286.803 535.339 286.432 535.697C286.061 536.055 285.585 536.352 285.003 536.588C284.422 536.825 283.725 536.943 282.913 536.943ZM283.536 534.642C284.329 534.642 285.007 534.485 285.569 534.172C286.138 533.859 286.569 533.45 286.863 532.945C287.164 532.433 287.314 531.887 287.314 531.305V529.407C287.212 529.509 287.014 529.605 286.72 529.694C286.432 529.778 286.103 529.851 285.732 529.915C285.361 529.973 285 530.027 284.649 530.078C284.297 530.123 284.003 530.161 283.766 530.193C283.21 530.263 282.702 530.382 282.242 530.548C281.788 530.714 281.424 530.954 281.149 531.267C280.88 531.574 280.746 531.983 280.746 532.494C280.746 533.204 281.008 533.741 281.532 534.105C282.057 534.463 282.725 534.642 283.536 534.642ZM296.866 527.873V536.617H293.999V516.981H296.828V524.287H297.01C297.355 523.494 297.882 522.865 298.592 522.398C299.302 521.931 300.228 521.698 301.373 521.698C302.382 521.698 303.265 521.906 304.019 522.321C304.779 522.737 305.368 523.357 305.783 524.181C306.205 525 306.416 526.022 306.416 527.25V536.617H303.549V527.595C303.549 526.514 303.271 525.677 302.715 525.083C302.159 524.482 301.385 524.181 300.395 524.181C299.717 524.181 299.11 524.325 298.573 524.613C298.042 524.9 297.624 525.322 297.317 525.878C297.016 526.428 296.866 527.093 296.866 527.873ZM328.327 522.139C328.225 521.231 327.803 520.528 327.061 520.03C326.32 519.525 325.387 519.272 324.262 519.272C323.456 519.272 322.76 519.4 322.171 519.656C321.583 519.905 321.126 520.25 320.8 520.691C320.481 521.126 320.321 521.621 320.321 522.177C320.321 522.644 320.43 523.047 320.647 523.386C320.871 523.724 321.162 524.009 321.519 524.239C321.884 524.463 322.274 524.651 322.689 524.805C323.105 524.952 323.504 525.073 323.888 525.169L325.805 525.667C326.432 525.821 327.074 526.029 327.733 526.291C328.391 526.553 329.001 526.898 329.564 527.326C330.126 527.754 330.58 528.285 330.925 528.918C331.277 529.551 331.453 530.308 331.453 531.19C331.453 532.302 331.165 533.29 330.59 534.153C330.021 535.016 329.193 535.697 328.106 536.195C327.026 536.694 325.719 536.943 324.185 536.943C322.715 536.943 321.443 536.71 320.369 536.243C319.295 535.777 318.454 535.115 317.847 534.258C317.24 533.395 316.904 532.373 316.84 531.19H319.813C319.87 531.9 320.1 532.491 320.503 532.964C320.912 533.431 321.433 533.779 322.066 534.009C322.705 534.233 323.405 534.345 324.166 534.345C325.003 534.345 325.748 534.214 326.4 533.952C327.058 533.683 327.576 533.312 327.953 532.839C328.33 532.36 328.519 531.801 328.519 531.161C328.519 530.58 328.353 530.104 328.02 529.733C327.694 529.362 327.25 529.055 326.687 528.812C326.131 528.569 325.502 528.355 324.799 528.17L322.478 527.537C320.906 527.109 319.659 526.479 318.739 525.648C317.825 524.817 317.368 523.718 317.368 522.35C317.368 521.219 317.675 520.231 318.288 519.387C318.902 518.544 319.733 517.888 320.781 517.422C321.829 516.949 323.012 516.712 324.329 516.712C325.658 516.712 326.831 516.946 327.848 517.412C328.87 517.879 329.676 518.521 330.264 519.339C330.852 520.151 331.159 521.084 331.184 522.139H328.327ZM341.11 536.914C339.659 536.914 338.41 536.604 337.361 535.984C336.319 535.358 335.514 534.479 334.945 533.348C334.383 532.21 334.101 530.877 334.101 529.349C334.101 527.841 334.383 526.511 334.945 525.361C335.514 524.21 336.307 523.312 337.323 522.666C338.346 522.021 339.541 521.698 340.909 521.698C341.74 521.698 342.545 521.835 343.325 522.11C344.105 522.385 344.805 522.817 345.425 523.405C346.045 523.993 346.534 524.757 346.892 525.696C347.25 526.629 347.429 527.764 347.429 529.1V530.116H335.722V527.969H344.62C344.62 527.214 344.466 526.546 344.159 525.965C343.852 525.377 343.421 524.913 342.865 524.574C342.315 524.236 341.67 524.066 340.928 524.066C340.123 524.066 339.42 524.264 338.819 524.661C338.224 525.051 337.764 525.562 337.438 526.195C337.118 526.821 336.959 527.502 336.959 528.237V529.915C336.959 530.899 337.131 531.737 337.476 532.427C337.828 533.117 338.317 533.645 338.943 534.009C339.57 534.367 340.302 534.546 341.139 534.546C341.682 534.546 342.178 534.469 342.625 534.316C343.073 534.156 343.459 533.92 343.785 533.606C344.111 533.293 344.361 532.906 344.533 532.446L347.247 532.935C347.029 533.734 346.639 534.434 346.077 535.035C345.521 535.629 344.821 536.093 343.977 536.425C343.14 536.751 342.184 536.914 341.11 536.914ZM353.776 536.617L349.442 521.89H352.405L355.291 532.705H355.435L358.33 521.89H361.293L364.17 532.657H364.313L367.18 521.89H370.143L365.819 536.617H362.894L359.903 525.984H359.682L356.691 536.617H353.776ZM377.149 536.943C376.216 536.943 375.372 536.77 374.618 536.425C373.864 536.074 373.266 535.566 372.825 534.901C372.391 534.236 372.173 533.421 372.173 532.456C372.173 531.625 372.333 530.941 372.653 530.404C372.972 529.867 373.404 529.442 373.947 529.129C374.49 528.816 375.098 528.579 375.769 528.419C376.44 528.259 377.124 528.138 377.821 528.055C378.703 527.953 379.419 527.87 379.968 527.806C380.518 527.735 380.918 527.623 381.167 527.47C381.416 527.317 381.541 527.067 381.541 526.722V526.655C381.541 525.818 381.304 525.169 380.831 524.709C380.365 524.248 379.668 524.018 378.741 524.018C377.776 524.018 377.015 524.232 376.459 524.661C375.909 525.083 375.529 525.552 375.318 526.07L372.624 525.457C372.943 524.562 373.41 523.839 374.024 523.29C374.644 522.734 375.356 522.331 376.162 522.082C376.967 521.826 377.814 521.698 378.703 521.698C379.291 521.698 379.914 521.768 380.572 521.909C381.237 522.043 381.857 522.292 382.432 522.657C383.014 523.021 383.49 523.542 383.861 524.22C384.232 524.891 384.417 525.763 384.417 526.837V536.617H381.617V534.604H381.502C381.317 534.974 381.039 535.339 380.668 535.697C380.298 536.055 379.821 536.352 379.24 536.588C378.658 536.825 377.961 536.943 377.149 536.943ZM377.773 534.642C378.565 534.642 379.243 534.485 379.805 534.172C380.374 533.859 380.806 533.45 381.1 532.945C381.4 532.433 381.55 531.887 381.55 531.305V529.407C381.448 529.509 381.25 529.605 380.956 529.694C380.668 529.778 380.339 529.851 379.968 529.915C379.598 529.973 379.236 530.027 378.885 530.078C378.533 530.123 378.239 530.161 378.003 530.193C377.447 530.263 376.939 530.382 376.478 530.548C376.024 530.714 375.66 530.954 375.385 531.267C375.117 531.574 374.983 531.983 374.983 532.494C374.983 533.204 375.245 533.741 375.769 534.105C376.293 534.463 376.961 534.642 377.773 534.642ZM395.611 516.981H399.207L405.458 532.245H405.688L411.94 516.981H415.535V536.617H412.716V522.408H412.534L406.743 536.588H404.404L398.612 522.398H398.43V536.617H395.611V516.981ZM425.816 536.914C424.435 536.914 423.23 536.598 422.201 535.965C421.172 535.332 420.373 534.447 419.804 533.309C419.235 532.171 418.951 530.842 418.951 529.321C418.951 527.793 419.235 526.457 419.804 525.313C420.373 524.169 421.172 523.28 422.201 522.647C423.23 522.014 424.435 521.698 425.816 521.698C427.197 521.698 428.402 522.014 429.431 522.647C430.46 523.28 431.259 524.169 431.828 525.313C432.397 526.457 432.681 527.793 432.681 529.321C432.681 530.842 432.397 532.171 431.828 533.309C431.259 534.447 430.46 535.332 429.431 535.965C428.402 536.598 427.197 536.914 425.816 536.914ZM425.826 534.508C426.721 534.508 427.462 534.271 428.05 533.798C428.638 533.325 429.073 532.696 429.354 531.909C429.642 531.123 429.786 530.257 429.786 529.311C429.786 528.371 429.642 527.508 429.354 526.722C429.073 525.93 428.638 525.294 428.05 524.814C427.462 524.335 426.721 524.095 425.826 524.095C424.924 524.095 424.177 524.335 423.582 524.814C422.994 525.294 422.556 525.93 422.268 526.722C421.987 527.508 421.847 528.371 421.847 529.311C421.847 530.257 421.987 531.123 422.268 531.909C422.556 532.696 422.994 533.325 423.582 533.798C424.177 534.271 424.924 534.508 425.826 534.508ZM442.756 521.89V524.191H434.711V521.89H442.756ZM436.869 518.361H439.736V532.293C439.736 532.849 439.819 533.268 439.985 533.549C440.151 533.824 440.365 534.012 440.627 534.115C440.896 534.21 441.187 534.258 441.5 534.258C441.73 534.258 441.931 534.242 442.104 534.21C442.276 534.178 442.411 534.153 442.507 534.134L443.024 536.502C442.858 536.566 442.622 536.63 442.315 536.694C442.008 536.764 441.624 536.802 441.164 536.809C440.41 536.822 439.707 536.687 439.055 536.406C438.403 536.125 437.875 535.69 437.473 535.102C437.07 534.514 436.869 533.776 436.869 532.887V518.361ZM451.972 536.914C450.592 536.914 449.387 536.598 448.358 535.965C447.329 535.332 446.529 534.447 445.961 533.309C445.392 532.171 445.107 530.842 445.107 529.321C445.107 527.793 445.392 526.457 445.961 525.313C446.529 524.169 447.329 523.28 448.358 522.647C449.387 522.014 450.592 521.698 451.972 521.698C453.353 521.698 454.558 522.014 455.587 522.647C456.616 523.28 457.415 524.169 457.984 525.313C458.553 526.457 458.837 527.793 458.837 529.321C458.837 530.842 458.553 532.171 457.984 533.309C457.415 534.447 456.616 535.332 455.587 535.965C454.558 536.598 453.353 536.914 451.972 536.914ZM451.982 534.508C452.877 534.508 453.618 534.271 454.206 533.798C454.794 533.325 455.229 532.696 455.51 531.909C455.798 531.123 455.942 530.257 455.942 529.311C455.942 528.371 455.798 527.508 455.51 526.722C455.229 525.93 454.794 525.294 454.206 524.814C453.618 524.335 452.877 524.095 451.982 524.095C451.081 524.095 450.333 524.335 449.738 524.814C449.15 525.294 448.712 525.93 448.425 526.722C448.143 527.508 448.003 528.371 448.003 529.311C448.003 530.257 448.143 531.123 448.425 531.909C448.712 532.696 449.15 533.325 449.738 533.798C450.333 534.271 451.081 534.508 451.982 534.508ZM462.037 536.617V521.89H464.808V524.229H464.962C465.23 523.437 465.703 522.813 466.381 522.36C467.065 521.899 467.838 521.669 468.701 521.669C468.88 521.669 469.091 521.676 469.334 521.688C469.583 521.701 469.778 521.717 469.919 521.736V524.479C469.804 524.447 469.599 524.411 469.305 524.373C469.011 524.328 468.717 524.306 468.423 524.306C467.745 524.306 467.141 524.45 466.611 524.737C466.087 525.019 465.671 525.412 465.364 525.917C465.058 526.415 464.904 526.984 464.904 527.623V536.617H462.037Z" fill="white"/>
<line x1="31" y1="527.605" x2="109.978" y2="527.605" stroke="white" stroke-width="3"/>
<line x1="490.418" y1="527.605" x2="569.396" y2="527.605" stroke="white" stroke-width="3"/>
</svg>
